<svg width="300" height="500" viewBox="0 0 300 500" xmlns="http://www.w3.org/2000/svg">
  <defs>
    <pattern id="stars" x="0" y="0" width="50" height="50" patternUnits="userSpaceOnUse">
      <circle cx="10" cy="10" r="1" fill="#f8efe6" opacity="0.6" />
      <circle cx="25" cy="20" r="0.8" fill="#f8efe6" opacity="0.5" />
      <circle cx="40" cy="30" r="1.2" fill="#f8efe6" opacity="0.7" />
      <circle cx="15" cy="40" r="0.7" fill="#f8efe6" opacity="0.4" />
      <circle cx="35" cy="5" r="0.9" fill="#f8efe6" opacity="0.6" />
    </pattern>
    <linearGradient id="cardGradient" x1="0%" y1="0%" x2="100%" y2="100%">
      <stop offset="0%" stop-color="#121063" />
      <stop offset="50%" stop-color="#3d3b8e" />
      <stop offset="100%" stop-color="#6c4b93" />
    </linearGradient>
  </defs>
  
  <!-- Card Base -->
  <rect width="300" height="500" rx="15" fill="url(#cardGradient)" />
  
  <!-- Star Pattern Background -->
  <rect width="300" height="500" rx="15" fill="url(#stars)" />
  
  <!-- Card Border -->
  <rect x="10" y="10" width="280" height="480" rx="10" stroke="#f49e4c" stroke-width="2" fill="none" />
  
  <!-- Center Emblem -->
  <circle cx="150" cy="250" r="80" fill="none" stroke="#f49e4c" stroke-width="3" />
  <path d="M150 170 L150 330 M90 250 L210 250" stroke="#f49e4c" stroke-width="3" />
  <circle cx="150" cy="250" r="40" fill="none" stroke="#f49e4c" stroke-width="2" />
  
  <!-- Moon and Stars -->
  <path d="M100 100 A 30 30 0 0 1 130 130 A 30 30 0 0 1 100 160 A 20 20 0 0 0 120 140 A 20 20 0 0 0 100 100Z" fill="#f8efe6" opacity="0.8" />
  
  <!-- Sun at Bottom -->
  <circle cx="150" cy="400" r="30" fill="none" stroke="#f49e4c" stroke-width="2" />
  <circle cx="150" cy="400" r="20" fill="#f49e4c" opacity="0.8" />
  <path d="M150 360 L150 350 M150 450 L150 440 M110 400 L100 400 M200 400 L190 400 M122 372 L115 365 M178 372 L185 365 M122 428 L115 435 M178 428 L185 435" stroke="#f49e4c" stroke-width="2" />
</svg>
